<?xml version="1.0" encoding="utf-8"?>
<!-- Generator: Adobe Illustrator 18.1.1, SVG Export Plug-In . SVG Version: 6.00 Build 0)  -->
<!DOCTYPE svg PUBLIC "-//W3C//DTD SVG 1.1//EN" "http://www.w3.org/Graphics/SVG/1.1/DTD/svg11.dtd">
<svg version="1.1" id="Calque_1" xmlns="http://www.w3.org/2000/svg" xmlns:xlink="http://www.w3.org/1999/xlink" x="0px" y="0px"
	 viewBox="0 0 95 71" enable-background="new 0 0 95 71" xml:space="preserve">
<path id="refresh-3-icon" fill="#010202" d="M63.2,20.4l-5,5c-2.7-2.7-6.4-4.4-10.6-4.4c-8.2,0-14.9,6.7-14.9,14.9c0,0,0,0,0,0h5.8
	l-9.3,9.3L20,35.9h5.7c0,0,0,0,0,0c0-12.1,9.8-22,22-22C53.7,13.9,59.2,16.4,63.2,20.4z M75,35.1l-9.2-9.3l-9.3,9.3h5.8c0,0,0,0,0,0
	c0,8.2-6.7,14.9-14.9,14.9c-4.1,0-7.9-1.7-10.6-4.4l-5,5c4,4,9.5,6.4,15.5,6.4c12.1,0,22-9.8,22-22c0,0,0,0,0,0L75,35.1L75,35.1z"/>
</svg>
