<?xml version="1.0" encoding="utf-8"?>
<!-- Generator: Adobe Illustrator 18.1.1, SVG Export Plug-In . SVG Version: 6.00 Build 0)  -->
<!DOCTYPE svg PUBLIC "-//W3C//DTD SVG 1.1//EN" "http://www.w3.org/Graphics/SVG/1.1/DTD/svg11.dtd">
<svg version="1.1" id="Calque_1" xmlns="http://www.w3.org/2000/svg" xmlns:xlink="http://www.w3.org/1999/xlink" x="0px" y="0px"
	 viewBox="0 0 271 178" enable-background="new 0 0 271 178" xml:space="preserve">
<g>
	<path fill="#FFFFFF" d="M185.2,51.5V32.2h-10v19.3c1.6-0.2,3.2-0.4,4.9-0.4C181.8,51.1,183.6,51.3,185.2,51.5z"/>
	<path fill="#FFFFFF" d="M206.4,64.5l13.8-13.8l-7.1-7.1l-13.8,13.8C202,59.4,204.4,61.8,206.4,64.5z"/>
	<path fill="#FFFFFF" d="M161,57.3l-13.6-13.6l-7.1,7.1L154,64.4C155.9,61.7,158.3,59.3,161,57.3z"/>
	<path fill="#FFFFFF" d="M205.1,83.6c0-13.8-11.2-25-25-25c-9.2,0-17.2,5-21.5,12.4c-6.5-5-15.7-6.3-23.7-1.8
		c-20.8-33.1-71.7-20.3-74.7,18.3c-12.1,3.8-20.8,15.1-20.8,28.5c0,16.5,13.4,29.9,29.9,29.9H163c16.5,0,29.9-13.4,29.9-29.9
		c0-3.5-0.6-6.9-1.7-10C199.4,101.9,205.1,93.4,205.1,83.6z"/>
	<path fill="#FFFFFF" d="M212.2,78.6c0.3,1.6,0.4,3.3,0.4,5c0,1.7-0.1,3.4-0.4,5h19.5v-10H212.2z"/>
	<path fill="#FFFFFF" d="M199.3,109.7l13.8,13.8l7.1-7.1l-13.8-13.8C204.4,105.4,202,107.8,199.3,109.7z"/>
</g>
</svg>
